<svg width="104" height="38" viewBox="0 0 104 38" fill="none" xmlns="http://www.w3.org/2000/svg">
<path d="M1.35552 2.46205C2.19864 2.58604 2.94258 2.67283 3.58732 2.72243C4.25685 2.77203 4.8148 2.82162 5.26116 2.87122C5.78191 2.92081 6.22827 2.94561 6.60024 2.94561H8.05091C9.01802 2.94561 10.6175 2.90841 12.8493 2.83402C12.3037 3.0076 11.845 3.25558 11.473 3.57795C11.1258 3.90032 10.8406 4.23509 10.6175 4.58226C10.3447 4.97902 10.1463 5.38818 10.0223 5.80975C9.87354 6.3305 9.73715 7.02483 9.61316 7.89275C9.48917 8.66148 9.36518 9.66579 9.2412 10.9057C9.142 12.1456 9.04281 13.6954 8.94362 15.5552C10.0099 14.3402 10.9398 13.2615 11.7334 12.3191C12.5517 11.3768 13.2584 10.5461 13.8536 9.82698C14.4487 9.10784 14.9447 8.4879 15.3414 7.96715C15.763 7.4464 16.1102 7.00004 16.3829 6.62807C17.0277 5.78495 17.3996 5.2146 17.4988 4.91703C17.5236 4.74344 17.5112 4.53266 17.4616 4.28469C17.412 4.0863 17.3377 3.85073 17.2385 3.57795C17.1393 3.28038 16.9905 2.95801 16.7921 2.61084C17.784 2.66044 18.6271 2.69763 19.3215 2.72243C20.0406 2.74723 20.6357 2.77203 21.1069 2.79682C21.6525 2.82162 22.0988 2.83402 22.446 2.83402H24.0082C24.5786 2.83402 25.3225 2.83402 26.24 2.83402C27.1575 2.80922 28.3106 2.78442 29.6993 2.75963C28.7818 2.98281 27.9139 3.28038 27.0956 3.65234C26.2772 4.02431 25.5457 4.38388 24.901 4.73105C24.157 5.15261 23.4627 5.58657 22.8179 6.03293C22.1732 6.52888 21.4541 7.11163 20.6605 7.78116C19.991 8.35151 19.2099 9.05825 18.3172 9.90137C17.4244 10.7197 16.4573 11.6744 15.4158 12.7655C16.5317 14.9477 17.4988 16.7455 18.3172 18.159C19.1603 19.5477 19.867 20.6636 20.4374 21.5067C21.0821 22.4986 21.6277 23.2549 22.074 23.7757C22.5204 24.2468 23.0411 24.7304 23.6363 25.2264C24.1322 25.6479 24.7522 26.1191 25.4961 26.6398C26.24 27.1358 27.0956 27.6193 28.0627 28.0905L17.4616 28.6112C17.6104 28.4129 17.6972 28.1773 17.722 27.9045C17.7716 27.6069 17.7964 27.3342 17.7964 27.0862C17.7964 26.8134 17.7716 26.5158 17.722 26.1935C17.6228 25.7967 17.3624 25.152 16.9409 24.2592C16.5937 23.4905 16.0606 22.4118 15.3414 21.0231C14.6223 19.6097 13.6304 17.7498 12.3657 15.4437L9.204 18.7542C9.08001 19.5477 9.01802 20.2668 9.01802 20.9116C9.01802 21.5563 9.04281 22.0894 9.09241 22.511C9.1668 23.0318 9.26599 23.4781 9.38998 23.8501C9.53877 24.2221 9.74955 24.6436 10.0223 25.1148C10.2455 25.5363 10.5431 26.0323 10.915 26.6026C11.287 27.173 11.7582 27.8053 12.3285 28.4997C11.7582 28.3509 11.1878 28.2517 10.6175 28.2021C10.0471 28.1277 9.52637 28.0781 9.05521 28.0533C8.50966 28.0285 7.98891 28.0409 7.49296 28.0905C6.9722 28.1401 6.36466 28.2145 5.67032 28.3137C5.07518 28.4129 4.34365 28.5369 3.47573 28.6856C2.60781 28.8344 1.6159 29.0204 0.5 29.2436C1.04555 28.9212 1.47951 28.5741 1.80188 28.2021C2.12425 27.8301 2.38463 27.4706 2.58301 27.1234C2.80619 26.7266 2.95497 26.3423 3.02937 25.9703C3.07896 25.6479 3.11616 24.9536 3.14096 23.8873C3.19055 22.821 3.21535 21.5811 3.21535 20.1676C3.24015 18.7294 3.24015 17.2167 3.21535 15.6296C3.19055 14.0426 3.16575 12.5547 3.14096 11.1661C3.11616 9.77738 3.07896 8.59949 3.02937 7.63238C3.00457 6.64047 2.97977 6.03293 2.95497 5.80975C2.88058 5.46258 2.78139 5.09061 2.6574 4.69385C2.53341 4.34668 2.35983 3.98711 2.13665 3.61515C1.93827 3.21838 1.67789 2.83402 1.35552 2.46205Z" fill="#C9CD1A"/>
<path d="M25.4961 12.3935L32.3403 12.4679C31.9435 13.9806 31.6459 15.2701 31.4476 16.3364C31.274 17.4027 31.1624 18.2954 31.1128 19.0145C31.0136 19.8329 30.9888 20.5272 31.0384 21.0975C31.1128 21.6183 31.2368 22.1762 31.4104 22.7714C31.5591 23.2673 31.7823 23.8377 32.0799 24.4824C32.3775 25.1272 32.7742 25.7719 33.2702 26.4166C32.9726 26.3175 32.6502 26.2431 32.3031 26.1935C31.9559 26.1439 31.6335 26.1067 31.336 26.0819C30.9888 26.0571 30.6416 26.0571 30.2945 26.0819C29.9473 26.1067 29.5629 26.1439 29.1414 26.1935C28.7942 26.2431 28.3726 26.3051 27.8767 26.3795C27.3807 26.4538 26.86 26.553 26.3144 26.677C26.6864 25.5611 26.9716 24.594 27.1699 23.7757C27.3931 22.9574 27.5543 22.2754 27.6535 21.7299C27.7527 21.0851 27.8147 20.5644 27.8395 20.1676C27.8395 19.6717 27.8395 19.1137 27.8395 18.4938C27.8395 17.849 27.8395 17.2291 27.8395 16.6339C27.8395 16.0388 27.8271 15.5181 27.8023 15.0717C27.7775 14.6005 27.7279 14.303 27.6535 14.179L27.2815 13.807C27.1327 13.683 26.9096 13.5094 26.612 13.2863C26.3392 13.0383 25.9673 12.7407 25.4961 12.3935ZM28.1371 6.66527C28.6578 6.39249 29.1786 6.3181 29.6993 6.44209C30.2449 6.56608 30.6664 6.80165 30.964 7.14882C31.2616 7.49599 31.3608 7.90515 31.2616 8.37631C31.1872 8.84747 30.7904 9.30622 30.0713 9.75258C29.3521 10.1741 28.7198 10.3229 28.1743 10.1989C27.6287 10.075 27.2443 9.81458 27.0212 9.41781C26.798 9.02105 26.7608 8.56229 26.9096 8.04154C27.0584 7.49599 27.4675 7.03723 28.1371 6.66527Z" fill="#C9CD1A"/>
<path d="M52.8728 0.527832C53.3439 0.55263 53.8523 0.565029 54.3978 0.565029C54.869 0.565029 55.4021 0.577428 55.9973 0.602225C56.6172 0.602225 57.262 0.577428 57.9315 0.527832C57.3364 0.800607 56.8156 1.19737 56.3693 1.71812C55.9229 2.23887 55.5633 2.75963 55.2906 3.28038C54.9434 3.90032 54.6582 4.54506 54.435 5.2146C54.3111 5.61136 54.2119 6.3181 54.1375 7.33481C54.0631 8.32671 54.0011 9.49221 53.9515 10.8313C53.9267 12.1704 53.9143 13.5838 53.9143 15.0717C53.9143 16.5596 53.9267 17.9854 53.9515 19.3493C53.9763 20.6884 54.0135 21.8787 54.0631 22.9202C54.1127 23.9617 54.1747 24.6932 54.2491 25.1148C54.3482 25.6107 54.4722 26.0819 54.621 26.5282C54.745 26.925 54.9062 27.3342 55.1046 27.7557C55.303 28.1525 55.5509 28.4749 55.8485 28.7228L52.0545 30.4339C51.8561 30.1611 51.6949 29.8759 51.5709 29.5784C51.4469 29.3056 51.3477 29.0576 51.2733 28.8344C51.1741 28.5617 51.1121 28.3137 51.0873 28.0905C51.0378 27.7929 50.9882 27.4706 50.9386 27.1234C50.889 26.7514 50.827 26.4042 50.7526 26.0819C50.703 25.7347 50.6658 25.4495 50.641 25.2264C50.6162 25.0032 50.6162 24.8668 50.641 24.8172C50.6658 24.7676 50.517 24.9908 50.1946 25.4867C49.8723 25.9579 49.3887 26.5158 48.744 27.1606C48.124 27.7805 47.3553 28.3881 46.4378 28.9832C45.5203 29.5536 44.4912 29.9131 43.3505 30.0619C42.185 30.2107 41.1063 29.9875 40.1144 29.3924C39.1472 28.7972 38.3165 27.9665 37.6222 26.9002C36.9278 25.8091 36.3947 24.5568 36.0227 23.1434C35.6756 21.7051 35.5392 20.242 35.6136 18.7542C35.6632 17.7622 35.8863 16.8819 36.2831 16.1132C36.6799 15.3197 37.1758 14.6377 37.771 14.0674C38.3909 13.4722 39.0605 12.9763 39.7796 12.5795C40.5235 12.158 41.2427 11.8108 41.937 11.538C42.6561 11.2652 43.3257 11.0669 43.9456 10.9429C44.5655 10.8189 45.0615 10.7321 45.4335 10.6825C45.8798 10.6577 46.3882 10.7321 46.9585 10.9057C47.4545 11.0545 48.0248 11.3024 48.6696 11.6496C49.3391 11.9968 50.083 12.5175 50.9014 13.2119C50.7526 10.7321 50.6162 8.74828 50.4922 7.26041C50.3682 5.74775 50.2442 4.59466 50.1202 3.80113C49.9962 2.85882 49.8847 2.21408 49.7855 1.86691C49.6615 1.61893 49.5003 1.37095 49.3019 1.12298C49.1283 0.924596 48.9051 0.726214 48.6324 0.527832C48.3844 0.304653 48.0868 0.131069 47.7397 0.00708008C48.3844 0.131069 49.0043 0.217861 49.5995 0.267456C50.1946 0.317052 50.7402 0.366647 51.2361 0.416242C51.8065 0.465838 52.352 0.503034 52.8728 0.527832ZM43.5364 14.4022C43.0653 14.5757 42.6809 14.8733 42.3833 15.2949C42.1106 15.7164 41.8874 16.2248 41.7138 16.8199C41.5402 17.3903 41.4162 18.0102 41.3418 18.6798C41.2922 19.3245 41.2551 19.9568 41.2303 20.5768C41.2303 21.1719 41.2303 21.7175 41.2303 22.2134C41.2303 22.7094 41.2303 23.0814 41.2303 23.3293C41.2303 23.4781 41.2551 23.7509 41.3046 24.1477C41.379 24.5196 41.5278 24.9164 41.751 25.3379C41.9742 25.7347 42.2842 26.0943 42.6809 26.4166C43.1025 26.739 43.6604 26.9002 44.3548 26.9002C44.9251 26.8506 45.5327 26.6522 46.1774 26.3051C46.7477 26.0075 47.3925 25.5363 48.1116 24.8916C48.8556 24.2221 49.6491 23.2673 50.4922 22.0275C50.4426 21.2339 50.4054 20.5768 50.3806 20.056C50.3806 19.5353 50.3682 19.1137 50.3434 18.7914C50.3186 18.4194 50.3062 18.1218 50.3062 17.8986V17.3407C50.3062 17.1919 50.3062 17.0307 50.3062 16.8571C50.3062 16.6835 50.3186 16.5224 50.3434 16.3736C49.6491 15.8776 49.0291 15.4561 48.4836 15.1089C47.9628 14.7369 47.4421 14.4641 46.9213 14.2906C46.4254 14.0922 45.9046 14.0054 45.3591 14.0302C44.8383 14.0302 44.2308 14.1542 43.5364 14.4022Z" fill="#C9CD1A"/>
<path d="M68.4513 37.3874C68.4259 37.3874 68.4132 37.3493 68.4132 37.2731C68.4132 37.1715 68.4513 37.0953 68.5275 37.0446C68.6291 37.0192 68.6798 36.9176 68.6798 36.7398V36.5875C68.6798 36.5113 68.6671 36.4224 68.6418 36.3209C68.6418 36.2193 68.6418 36.1177 68.6418 36.0161C68.3116 35.3051 67.88 34.8735 67.3467 34.7211C66.8135 34.5434 66.2167 34.4799 65.5565 34.5307C64.617 34.5814 63.6774 34.6322 62.7379 34.683C61.8238 34.7338 60.8842 34.7592 59.9193 34.7592H58.4719C57.6086 34.7592 56.7452 34.7719 55.8818 34.7973C55.0439 34.8227 54.2567 34.8862 53.5203 34.9877C52.9617 35.0639 52.3903 35.1401 51.8063 35.2163C51.2222 35.2671 50.6382 35.2924 50.0542 35.2924C49.6733 35.7495 49.3559 36.0796 49.1019 36.2828C48.848 36.5113 48.4925 36.8033 48.0354 37.1588C48.01 37.1842 47.9593 37.1969 47.8831 37.1969C47.8323 37.1969 47.7942 37.1715 47.7688 37.1207C47.718 37.0699 47.718 36.9938 47.7688 36.8922C47.972 36.6129 48.2132 36.3336 48.4925 36.0542C48.7972 35.8003 49.1146 35.5464 49.4447 35.2924C49.1908 35.2671 48.9496 35.2163 48.7211 35.1401C48.5179 35.0385 48.429 34.8989 48.4544 34.7211C48.5052 34.3402 48.6703 34.0736 48.9496 33.9212C49.2543 33.7435 49.5844 33.6292 49.9399 33.5784C50.2954 33.5276 50.6128 33.4896 50.8921 33.4642C51.6793 32.7278 52.4919 32.0041 53.3299 31.2931C54.1678 30.5567 55.0185 29.8457 55.8818 29.1601L57.9387 27.4841C58.2434 27.3064 58.5354 27.0906 58.8147 26.8366C58.9417 26.7351 59.0559 26.6081 59.1575 26.4557C59.2845 26.278 59.3607 26.1383 59.3861 26.0367L59.5765 25.8463C59.6527 25.8209 59.7796 25.7828 59.9574 25.732C60.1351 25.6559 60.2621 25.5924 60.3383 25.5416C60.4145 25.3384 60.516 25.148 60.643 24.9702C60.7954 24.7671 60.9858 24.6655 61.2143 24.6655C61.2905 24.6655 61.3794 24.6909 61.481 24.7417V24.5132L61.5571 24.437L61.8999 24.3608L61.8238 24.4751L62.1666 24.3608L62.3189 24.0561C62.5729 23.9291 62.9157 23.7006 63.3473 23.3705C63.8044 23.015 64.1218 22.7357 64.2996 22.5325C64.8328 22.304 65.3153 22.012 65.747 21.6565C66.0009 21.4279 66.2548 21.1486 66.5088 20.8185C66.7881 20.4884 67.0928 20.298 67.4229 20.2472L68.4132 19.333C68.2101 19.2822 67.9307 19.2569 67.5752 19.2569C67.2197 19.2315 66.8516 19.2188 66.4707 19.2188H64.9471C64.7947 19.2188 64.6424 19.2061 64.49 19.1807C64.3377 19.1553 64.1853 19.1426 64.0329 19.1426C63.6013 19.1426 63.1569 19.1807 62.6998 19.2569C62.2681 19.3076 61.8238 19.3584 61.3667 19.4092C61.1889 19.4346 60.9985 19.4473 60.7954 19.4473C60.6176 19.4473 60.4272 19.4473 60.224 19.4473C59.5384 19.4727 59.1067 19.5362 58.929 19.6377C58.7512 19.7393 58.637 19.8409 58.5862 19.9425C58.5608 20.044 58.4211 20.1329 58.1672 20.2091C57.6086 20.3361 57.1261 20.59 56.7198 20.9709C56.3135 21.3518 55.958 21.7707 55.6533 22.2278C55.374 22.6595 55.1328 23.0531 54.9296 23.4086C54.7519 23.7387 54.5868 23.9291 54.4344 23.9799C54.4091 24.0053 54.3837 24.018 54.3583 24.018C54.2313 24.018 54.1678 23.9418 54.1678 23.7895C54.1932 23.6879 54.244 23.6244 54.3202 23.599C54.4217 23.5736 54.4979 23.5356 54.5487 23.4848C54.7772 23.0277 54.9677 22.6849 55.1201 22.4564C55.2978 22.2278 55.5517 21.9104 55.8818 21.5041H55.9199C55.9707 21.3518 56.0723 21.1105 56.2246 20.7804C56.377 20.4249 56.504 20.1964 56.6055 20.0948C56.7833 19.7901 56.9483 19.5616 57.1007 19.4092C57.2784 19.2315 57.4308 18.9775 57.5578 18.6474C57.6086 18.5459 57.6466 18.4443 57.672 18.3427C57.7228 18.2157 57.7736 18.1015 57.8244 17.9999C57.8752 17.8729 57.9514 17.8095 58.0529 17.8095C58.1545 17.8095 58.2053 17.8602 58.2053 17.9618C58.2053 18.1142 58.1799 18.2665 58.1291 18.4189C58.1037 18.5712 58.0656 18.7109 58.0148 18.8379C58.6751 18.6347 59.4368 18.4951 60.3002 18.4189C61.1636 18.3173 62.0396 18.2665 62.9284 18.2665C63.8171 18.2411 64.5916 18.2284 65.2518 18.2284C65.5311 18.2284 65.7978 18.2411 66.0517 18.2665C66.331 18.2919 66.5976 18.33 66.8516 18.3808L67.461 18.0761C67.588 18.0761 67.7022 18.0888 67.8038 18.1142C67.9308 18.1396 68.0577 18.165 68.1847 18.1904C68.2862 18.1904 68.4767 18.203 68.756 18.2284C69.0353 18.2538 69.302 18.2919 69.5559 18.3427C69.8098 18.3681 69.9368 18.4316 69.9368 18.5332C70.1653 18.33 70.47 18.0634 70.8509 17.7333C71.2318 17.3778 71.5492 17.1492 71.8032 17.0477L72.4507 16.8191C72.5523 16.7684 72.6919 16.6922 72.8697 16.5906C73.0474 16.4636 73.1871 16.4002 73.2886 16.4002C73.4664 16.4002 73.5426 16.4509 73.5172 16.5525C73.5172 16.6795 73.3902 16.7937 73.1363 16.8953C72.9078 16.9969 72.73 17.0731 72.603 17.1239C72.5015 17.2 72.3745 17.2889 72.2221 17.3905C72.0952 17.4667 71.9809 17.5555 71.8793 17.6571C71.8032 17.7587 71.5873 17.9364 71.2318 18.1904C70.9017 18.4443 70.6732 18.6347 70.5462 18.7617C70.2923 18.9648 70.1272 19.1172 70.0511 19.2188C69.9749 19.3203 69.9114 19.4346 69.8606 19.5616C69.8352 19.6631 69.7463 19.8282 69.594 20.0567C69.4416 20.2853 69.3147 20.3995 69.2131 20.3995C69.1369 20.3995 68.9973 20.4757 68.7941 20.6281C68.7433 20.6535 68.6037 20.7804 68.3751 21.009C68.172 21.2121 68.045 21.301 67.9942 21.2756C67.7911 21.3772 67.5879 21.5549 67.3848 21.8088C67.2071 22.0374 67.042 22.2278 66.8896 22.3802C66.7373 22.5579 66.5722 22.7103 66.3945 22.8372C66.2421 22.9388 66.0771 23.0531 65.8993 23.18C65.7978 23.2562 65.6454 23.3959 65.4423 23.599C65.2645 23.8022 65.1248 23.9291 65.0233 23.9799C64.8709 24.0815 64.6043 24.2719 64.2234 24.5513C63.8425 24.8052 63.4235 25.0845 62.9664 25.3892C62.5348 25.6939 62.1285 25.9606 61.7476 26.1891C61.3921 26.3922 61.1382 26.4938 60.9858 26.4938L59.9955 27.2175L59.5384 27.2937L59.3099 27.5603L59.5003 27.6746L59.4622 27.8269C59.2337 28.0047 58.9163 28.1697 58.51 28.3221C58.1291 28.4491 57.7736 28.6268 57.4435 28.8554C57.1388 29.0839 56.7325 29.3886 56.2246 29.7695C55.7168 30.1504 55.1835 30.5694 54.6249 31.0264C54.0916 31.4835 53.6092 31.9279 53.1775 32.3596C52.7458 32.7912 52.4538 33.1594 52.3014 33.4642C52.4284 33.4388 52.5554 33.4261 52.6823 33.4261C52.8347 33.4261 52.9744 33.4261 53.1013 33.4261C53.4314 33.4261 53.7615 33.4388 54.0916 33.4642C54.4471 33.4642 54.8026 33.4642 55.1581 33.4642C56.0723 33.4642 56.9991 33.4388 57.9387 33.388C58.8782 33.3118 59.7162 33.2737 60.4526 33.2737C60.5541 33.2737 60.6684 33.261 60.7954 33.2356C60.9223 33.1848 61.0366 33.1594 61.1382 33.1594C61.3413 33.1594 61.6714 33.1721 62.1285 33.1975C62.6109 33.1975 62.9284 33.261 63.0807 33.388C62.9537 33.4642 62.8903 33.5403 62.8903 33.6165C62.8903 33.6927 62.9411 33.7562 63.0426 33.807C63.1442 33.8324 63.2331 33.8451 63.3092 33.8451C63.4362 33.8451 63.4997 33.7816 63.4997 33.6546C63.4997 33.5276 63.5759 33.4642 63.7282 33.4642C63.8044 33.4896 63.8425 33.5403 63.8425 33.6165C63.8425 33.6673 63.8425 33.6927 63.8425 33.6927H64.2615C64.3377 33.6927 64.4138 33.6927 64.49 33.6927C64.5662 33.6673 64.6551 33.6546 64.7566 33.6546C64.8582 33.6546 64.9852 33.68 65.1375 33.7308C65.2899 33.7562 65.3788 33.8324 65.4042 33.9593C65.4803 34.0101 65.5565 34.0228 65.6327 33.9974C65.7343 33.972 65.8104 33.9593 65.8612 33.9593C66.1152 33.9593 66.3691 33.9847 66.623 34.0355C66.8769 34.0863 67.169 34.1117 67.4991 34.1117C67.6514 34.1117 67.8038 34.0736 67.9561 33.9974C68.2355 33.972 68.4894 34.0863 68.7179 34.3402C68.9465 34.5941 69.1242 34.8862 69.2512 35.2163C69.4035 35.5464 69.4543 35.8384 69.4035 36.0923C69.3781 36.2701 69.2639 36.524 69.0607 36.8541C68.8576 37.2096 68.6544 37.3874 68.4513 37.3874Z" fill="#1ACDAD"/>
<path d="M71.4901 35.7114C70.9315 35.7114 70.4363 35.5591 70.0046 35.2544C69.5984 34.9242 69.3952 34.3656 69.3952 33.5784C69.3952 33.2991 69.446 32.9055 69.5476 32.3977C69.6491 31.8898 69.8142 31.3566 70.0427 30.7979C70.1697 30.4932 70.3093 30.2012 70.4617 29.9219C70.6395 29.6425 70.8045 29.3759 70.9569 29.122C70.9823 29.0966 71.0584 29.122 71.1854 29.1982C71.3378 29.2743 71.4266 29.2997 71.452 29.2743C71.4774 29.2236 71.4393 29.1728 71.3378 29.122C71.2616 29.0458 71.2362 28.995 71.2616 28.9696C71.3124 28.9188 71.3505 28.8934 71.3758 28.8934C71.4266 28.8681 71.4647 28.83 71.4901 28.7792C71.5155 28.7284 71.5282 28.6776 71.5282 28.6268C71.5282 28.5506 71.4901 28.4872 71.4139 28.4364C71.3632 28.3856 71.3885 28.3094 71.4901 28.2078C71.6171 28.0301 71.7567 27.865 71.9091 27.7127C72.0869 27.5349 72.2392 27.3826 72.3662 27.2556C72.417 27.2048 72.4804 27.1286 72.5566 27.0271C72.6328 26.9001 72.6836 26.8239 72.709 26.7985L72.7851 26.7224C72.8105 26.697 72.8359 26.6716 72.8613 26.6462C72.8613 26.6208 72.8613 26.6081 72.8613 26.6081C72.8867 26.6081 72.8994 26.5954 72.8994 26.57C72.8994 26.4938 72.8232 26.4176 72.6709 26.3415C72.5185 26.2653 72.4423 26.2145 72.4423 26.1891C72.4423 26.1637 72.4297 26.1383 72.4043 26.1129C72.3789 26.0875 72.3535 26.0494 72.3281 25.9987C72.3535 25.9987 72.3789 25.9733 72.4043 25.9225C72.455 25.8463 72.4931 25.8082 72.5185 25.8082C72.5439 25.8082 72.5947 25.8336 72.6709 25.8844C72.7471 25.9098 72.7979 25.9225 72.8232 25.9225C72.8486 25.9225 72.8613 25.9098 72.8613 25.8844C72.8867 25.859 72.9121 25.8463 72.9375 25.8463C72.9883 25.8463 73.1026 25.8844 73.2803 25.9606C73.4581 26.0114 73.5596 26.0367 73.585 26.0367C73.6104 26.0367 73.6866 25.9733 73.8136 25.8463C73.9405 25.7193 74.0167 25.6432 74.0421 25.6178C74.0929 25.567 74.131 25.5162 74.1564 25.4654C74.1818 25.3892 74.2452 25.3004 74.3468 25.1988H74.3849C74.4103 25.1734 74.423 25.148 74.423 25.1226C74.423 25.0972 74.423 25.0845 74.423 25.0845C74.4738 25.0337 74.5119 24.9956 74.5373 24.9702C74.588 24.9195 74.6261 24.8814 74.6515 24.856C74.6769 24.8306 74.6896 24.8179 74.6896 24.8179C74.715 24.8179 74.7277 24.8179 74.7277 24.8179C74.7531 24.7671 74.7785 24.729 74.8039 24.7036C74.8547 24.6782 74.8928 24.6528 74.9182 24.6274L74.9943 24.4751C75.0451 24.4243 75.2229 24.31 75.5276 24.1323C75.8323 23.9545 76.0608 23.8657 76.2132 23.8657H76.4036C76.4036 23.8657 76.4036 23.8784 76.4036 23.9037C76.4036 23.9037 76.4163 23.9037 76.4417 23.9037C76.4671 23.9037 76.4925 23.9037 76.5179 23.9037C76.5433 23.8784 76.5687 23.8657 76.5941 23.8657C76.5941 23.8657 76.6322 23.9037 76.7084 23.9799C76.7337 24.0053 76.7591 24.018 76.7845 24.018C76.8099 23.9926 76.8353 23.9799 76.8607 23.9799C76.8861 24.0053 76.8988 24.0307 76.8988 24.0561C76.8988 24.0815 76.9115 24.0942 76.9369 24.0942C76.9877 24.0942 77.0004 24.0942 76.975 24.0942C76.975 24.0688 76.9877 24.0561 77.0131 24.0561C77.0385 24.0561 77.0512 24.0815 77.0512 24.1323C77.0512 24.1831 77.0639 24.2339 77.0892 24.2846C77.0639 24.3608 77.0385 24.4497 77.0131 24.5513C77.0131 24.6274 77.0004 24.6909 76.975 24.7417C76.7464 25.0464 76.5687 25.1988 76.4417 25.1988C76.4417 25.2242 76.4036 25.275 76.3275 25.3511C76.2513 25.3511 76.1624 25.3765 76.0608 25.4273C75.9593 25.4781 75.8577 25.5289 75.7561 25.5797V25.6939C75.7561 25.7955 75.718 25.8463 75.6418 25.8463C75.5911 25.8209 75.5403 25.859 75.4895 25.9606V25.9987C75.5403 26.0748 75.6292 26.1129 75.7561 26.1129L76.0227 26.151C76.0735 26.151 76.0989 26.1383 76.0989 26.1129C76.1243 26.0875 76.1497 26.0748 76.1751 26.0748C76.2005 26.0748 76.2132 26.0875 76.2132 26.1129C76.2132 26.1129 76.2259 26.1129 76.2513 26.1129C76.3021 26.1129 76.3402 26.1002 76.3655 26.0748C76.3909 26.0494 76.4163 26.0367 76.4417 26.0367L76.7845 26.0748C76.7084 25.9479 76.6703 25.8463 76.6703 25.7701C76.6703 25.6432 76.7845 25.567 77.0131 25.5416C77.3686 25.5416 77.6733 25.6686 77.9272 25.9225C77.978 25.8971 78.0415 25.8971 78.1177 25.9225C78.1938 25.9479 78.27 25.9479 78.3462 25.9225L78.5366 25.8082L78.5747 25.8463C78.6763 25.7955 78.7398 25.7701 78.7652 25.7701C78.816 25.7701 78.8287 25.7828 78.8033 25.8082C78.8033 25.8082 78.816 25.8082 78.8414 25.8082C78.8414 25.8082 78.8667 25.7828 78.9175 25.732C78.9429 25.732 78.9683 25.7447 78.9937 25.7701C79.0445 25.7701 79.0826 25.7574 79.108 25.732L79.2222 25.6178H79.6793L79.7174 25.5797C79.7682 25.5543 79.8317 25.5289 79.9079 25.5035C80.0094 25.4527 80.0983 25.4273 80.1745 25.4273C80.1745 25.4019 80.1999 25.3892 80.2507 25.3892C80.3014 25.3638 80.3395 25.3511 80.3649 25.3511H80.4411C80.5681 25.3511 80.6315 25.3892 80.6315 25.4654C80.6315 25.5416 80.5935 25.6051 80.5173 25.6559C80.4919 25.6812 80.4538 25.6939 80.403 25.6939C80.3522 25.6686 80.3014 25.6686 80.2507 25.6939C80.1491 25.7955 80.0729 25.8463 80.0221 25.8463C79.9967 25.8463 79.984 25.8463 79.984 25.8463C79.984 25.8209 79.9713 25.8082 79.9459 25.8082C79.9205 25.8082 79.8698 25.8463 79.7936 25.9225L79.527 25.9606H79.4889C79.4381 25.9606 79.4127 25.986 79.4127 26.0367C79.3111 26.0367 79.2095 26.0494 79.108 26.0748C79.0064 26.0748 78.9048 26.0875 78.8033 26.1129L78.7652 26.151C78.7398 26.151 78.7144 26.1637 78.689 26.1891C78.6636 26.1891 78.6255 26.1891 78.5747 26.1891C78.5239 26.2145 78.3843 26.2272 78.1557 26.2272C78.3081 26.4303 78.4097 26.6208 78.4605 26.7985C78.5112 26.9255 78.5493 27.1286 78.5747 27.408C78.6255 27.6619 78.6382 27.8523 78.6128 27.9793C78.6128 28.0555 78.5874 28.0809 78.5366 28.0555C78.4858 28.0047 78.4605 28.0047 78.4605 28.0555C78.4605 28.1317 78.4858 28.1824 78.5366 28.2078C78.6128 28.2078 78.6509 28.2713 78.6509 28.3983C78.6509 28.4745 78.6382 28.576 78.6128 28.703C78.5874 28.8046 78.562 28.9188 78.5366 29.0458C78.5112 29.1982 78.4732 29.3632 78.4224 29.541C78.397 29.6933 78.3335 29.8457 78.2319 29.998L78.1177 30.1885V30.417C78.1177 30.6202 78.0542 30.7598 77.9272 30.836C77.8256 30.9122 77.7495 31.0011 77.6987 31.1026C77.6479 31.255 77.6098 31.3566 77.5844 31.4073C77.5844 31.4581 77.5336 31.5597 77.432 31.7121C77.1019 32.2199 76.7084 32.7024 76.2513 33.1594C75.7942 33.6165 75.3498 34.0355 74.9182 34.4164C74.5373 34.7465 74.0167 35.0512 73.3565 35.3305C72.7217 35.5845 72.0995 35.7114 71.4901 35.7114ZM71.871 35.0258C71.9472 35.0258 72.0995 35.0131 72.3281 34.9877C72.5566 34.9369 72.7978 34.8227 73.0518 34.6449C73.1026 34.6195 73.1534 34.6322 73.2041 34.683C73.2549 34.7338 73.3057 34.7465 73.3565 34.7211C73.4835 34.6703 73.5342 34.6322 73.5089 34.6068C73.4835 34.5814 73.5215 34.5561 73.6231 34.5307H73.6612C73.8136 34.5307 73.877 34.518 73.8517 34.4926C73.8517 34.4418 73.8643 34.3783 73.8897 34.3021C73.8897 34.2259 73.9278 34.1625 74.004 34.1117C74.0802 34.0609 74.1437 34.0228 74.1945 33.9974C74.4738 33.7689 74.8166 33.388 75.2229 32.8547C75.6292 32.2961 76.0354 31.7374 76.4417 31.1788C76.4671 31.128 76.5052 31.1153 76.556 31.1407C76.6068 31.1661 76.6449 31.1661 76.6703 31.1407C76.6957 31.1153 76.7084 31.0391 76.7084 30.9122C76.7084 30.836 76.7464 30.7217 76.8226 30.5694C76.8988 30.3916 76.975 30.252 77.0512 30.1504C77.0765 30.0742 77.1273 29.9346 77.2035 29.7314C77.2797 29.5029 77.3432 29.2997 77.394 29.122C77.4701 28.9188 77.4828 28.8173 77.432 28.8173C77.3813 28.7919 77.3559 28.7665 77.3559 28.7411C77.3559 28.6903 77.432 28.6395 77.5844 28.5887C77.7368 28.5379 77.7241 28.4999 77.5463 28.4745C77.4955 28.4491 77.5082 28.3983 77.5844 28.3221C77.6606 28.2459 77.6225 28.1951 77.4701 28.1698C77.3432 28.1444 77.2924 28.1063 77.3178 28.0555C77.3686 28.0047 77.4067 27.9666 77.432 27.9412C77.5082 27.865 77.5463 27.7889 77.5463 27.7127C77.5463 27.4841 77.4828 27.2556 77.3559 27.0271C77.2543 26.7985 77.14 26.5954 77.0131 26.4176C76.8607 26.5192 76.7845 26.57 76.7845 26.57C76.7591 26.57 76.7464 26.57 76.7464 26.57C76.7464 26.5446 76.721 26.5319 76.6703 26.5319C76.6449 26.5319 76.6322 26.5319 76.6322 26.5319C76.6322 26.5065 76.6195 26.4938 76.5941 26.4938C76.5687 26.4938 76.5433 26.5065 76.5179 26.5319C76.4925 26.5573 76.4798 26.57 76.4798 26.57C76.4544 26.5954 76.4036 26.6081 76.3275 26.6081C76.2767 26.6081 76.2386 26.6081 76.2132 26.6081C76.1878 26.6081 76.1624 26.5954 76.137 26.57C76.137 26.5446 76.1243 26.5319 76.0989 26.5319C76.0735 26.5319 76.0354 26.5573 75.9847 26.6081C75.9593 26.6589 75.9212 26.6843 75.8704 26.6843C75.845 26.6843 75.8323 26.6716 75.8323 26.6462C75.8323 26.6208 75.8069 26.6081 75.7561 26.6081C75.7307 26.6081 75.7053 26.6208 75.6799 26.6462C75.6799 26.6716 75.6672 26.6843 75.6418 26.6843C75.6165 26.6843 75.5657 26.6462 75.4895 26.57H75.4514C75.4514 26.7224 75.4133 26.7985 75.3371 26.7985C75.3117 26.7985 75.2737 26.7731 75.2229 26.7224C74.9435 26.9001 74.4738 27.3191 73.8136 27.9793C73.1534 28.6141 72.5693 29.3505 72.0615 30.1885C71.9599 30.3916 71.8329 30.6329 71.6806 30.9122C71.5536 31.1915 71.4393 31.5089 71.3378 31.8644C71.3124 32.0168 71.2362 32.131 71.1092 32.2072C71.0077 32.2834 70.9315 32.3723 70.8807 32.4738C70.8553 32.5754 70.868 32.6389 70.9188 32.6643C70.9696 32.6897 71.0077 32.7278 71.033 32.7786C71.033 32.8801 71.0077 33.0198 70.9569 33.1975C70.9315 33.3753 70.9188 33.5403 70.9188 33.6927C70.9188 34.1752 71.0077 34.518 71.1854 34.7211C71.3885 34.9242 71.6171 35.0258 71.871 35.0258Z" fill="#1ACDAD"/>
<path d="M79.8829 35.4829C79.7305 35.4829 79.6543 35.394 79.6543 35.2163C79.6543 35.0893 79.6924 34.9369 79.7686 34.7592C79.9717 34.3275 80.213 33.7181 80.4923 32.9309C80.7716 32.1437 81.1144 31.4708 81.5207 30.9122L83.0062 27.5984C83.0062 27.5984 82.9808 27.5857 82.93 27.5603C82.8792 27.5095 82.8538 27.4587 82.8538 27.408C82.7015 27.3064 82.5364 27.1667 82.3587 26.989C82.2063 26.7858 82.1936 26.5827 82.3206 26.3796C82.3714 26.3288 82.4094 26.3034 82.4348 26.3034C82.4602 26.3034 82.4729 26.3034 82.4729 26.3034V26.2272C82.4729 26.1256 82.511 26.0621 82.5872 26.0367C82.6888 26.0114 82.7522 25.9733 82.7776 25.9225C82.8284 25.567 83.1204 25.3004 83.6537 25.1226C84.2123 24.9449 84.7075 24.856 85.1392 24.856C85.5709 24.856 85.7867 24.9195 85.7867 25.0464C85.7867 25.1226 85.7105 25.2115 85.5582 25.3131C85.5074 25.3638 85.3804 25.4781 85.1773 25.6559C84.9995 25.8336 84.8345 26.0494 84.6821 26.3034L84.4155 26.7604L84.1489 27.1032C83.7426 27.8396 83.4125 28.4618 83.1585 28.9696C82.9046 29.4775 82.5999 30.125 82.2444 30.9122C82.1682 31.0645 82.1301 31.1915 82.1301 31.2931C82.1301 31.42 82.1809 31.4835 82.2825 31.4835C82.3333 31.4835 82.384 31.4708 82.4348 31.4454C82.511 31.3946 82.5872 31.3566 82.6634 31.3312C82.8665 31.2042 83.0316 31.0899 83.1585 30.9884C83.3109 30.8614 83.4759 30.7344 83.6537 30.6075C83.7299 30.5313 83.7934 30.5313 83.8441 30.6075C83.8949 30.6582 83.8949 30.7344 83.8441 30.836C83.7426 31.0391 83.6664 31.1661 83.6156 31.2169C83.5902 31.2423 83.5521 31.2677 83.5013 31.2931C83.4506 31.3185 83.3363 31.4327 83.1585 31.6359L83.0062 31.9406C82.9554 31.9914 82.8919 32.0929 82.8157 32.2453C82.7649 32.3723 82.7396 32.4484 82.7396 32.4738C82.7396 32.5246 82.7142 32.55 82.6634 32.55C82.6126 32.5246 82.5364 32.5627 82.4348 32.6643C82.4094 32.6897 82.3968 32.7405 82.3968 32.8166C82.4221 32.8928 82.4094 32.9563 82.3587 33.0071C82.3333 33.0833 82.2952 33.1467 82.2444 33.1975C82.1936 33.2229 82.1682 33.2483 82.1682 33.2737C82.1428 33.3753 82.092 33.4388 82.0159 33.4642C81.9651 33.4642 81.9143 33.4896 81.8635 33.5403C81.8381 33.5403 81.8254 33.5657 81.8254 33.6165C81.8254 33.8197 81.8 33.9085 81.7492 33.8831C81.6984 33.8577 81.6477 33.8831 81.5969 33.9593C81.5461 34.0609 81.4826 34.1117 81.4064 34.1117C81.2541 34.1625 81.1906 34.2006 81.216 34.2259C81.2414 34.2513 81.2795 34.2767 81.3302 34.3021C81.381 34.3021 81.3429 34.3402 81.216 34.4164C81.1398 34.4418 81.0763 34.518 81.0255 34.6449C80.9747 34.7465 80.924 34.8227 80.8732 34.8735C80.8224 34.9242 80.7589 34.9623 80.6827 34.9877C80.6066 35.0131 80.5431 35.0639 80.4923 35.1401C80.2637 35.3686 80.0606 35.4829 79.8829 35.4829ZM91.2335 35.1782C91.1319 35.1782 91.043 35.1782 90.9668 35.1782C90.8907 35.1528 90.8145 35.1274 90.7383 35.102C90.4844 35.0512 90.2558 34.975 90.0527 34.8735C89.8749 34.7719 89.7226 34.5814 89.5956 34.3021C89.5702 34.1752 89.5068 34.0101 89.4052 33.807C89.329 33.6038 89.2782 33.4134 89.2528 33.2356C89.2274 33.1087 89.2147 32.9563 89.2147 32.7786C89.1893 32.6516 89.1766 32.4865 89.1766 32.2834C89.1259 32.0295 89.1005 31.8009 89.1005 31.5978C89.1259 31.3946 89.1386 31.1534 89.1386 30.8741C89.1386 30.5948 89.1513 30.3916 89.1766 30.2647C89.2274 30.0361 89.2528 29.9219 89.2528 29.9219C89.2528 29.8965 89.2528 29.7695 89.2528 29.541C89.2782 29.2362 89.2909 28.9188 89.2909 28.5887C89.2909 28.2586 89.3036 27.992 89.329 27.7889C89.4052 27.0271 89.2528 26.6462 88.8719 26.6462C88.7196 26.6462 88.5164 26.7097 88.2625 26.8366C88.2371 26.9128 88.1863 26.9636 88.1101 26.989C88.0594 26.989 87.9832 27.0144 87.8816 27.0652L87.6912 27.1794C87.6912 27.2048 87.6658 27.2175 87.615 27.2175C87.5642 27.1921 87.5388 27.2048 87.5388 27.2556C87.5642 27.3572 87.5515 27.4207 87.5007 27.4461C87.4753 27.4714 87.4372 27.4587 87.3865 27.408L86.9675 27.7127C86.9675 27.7381 86.9294 27.7889 86.8532 27.865L86.8151 27.9031C86.7135 28.0047 86.6247 28.0555 86.5485 28.0555L86.4342 28.1698C86.4342 28.1951 86.4088 28.2459 86.358 28.3221C86.3326 28.3729 86.2692 28.3856 86.1676 28.3602L85.9771 28.5506C85.8756 28.703 85.7867 28.7919 85.7105 28.8173C85.6597 28.8427 85.5962 28.8681 85.5201 28.8934L85.2154 29.2743L85.063 29.3124C85.063 29.414 84.9487 29.5664 84.7202 29.7695C84.5171 29.9726 84.3774 30.1123 84.3012 30.1885C84.225 30.2647 84.1489 30.3027 84.0727 30.3027C84.0219 30.3027 83.9965 30.2774 83.9965 30.2266C83.9965 30.2012 84.06 30.0996 84.1869 29.9219C84.2885 29.8203 84.4409 29.6298 84.644 29.3505C84.8726 29.0712 84.9995 28.9442 85.0249 28.9696C85.1519 28.8427 85.2408 28.7157 85.2915 28.5887C85.3423 28.4364 85.4312 28.3094 85.5582 28.2078C85.5582 28.2332 85.5582 28.2586 85.5582 28.284C85.5836 28.284 85.5962 28.284 85.5962 28.284C85.647 28.284 85.7105 28.2205 85.7867 28.0936C85.8629 27.9412 85.9137 27.8777 85.939 27.9031L86.5866 27.3318C86.5866 27.3064 86.6501 27.2556 86.777 27.1794C86.8786 27.1286 86.9421 27.1032 86.9675 27.1032C86.9929 27.1032 87.0563 27.0271 87.1579 26.8747L87.4245 26.6843C87.4499 26.6335 87.4753 26.6462 87.5007 26.7224C87.5515 26.7731 87.5896 26.7858 87.615 26.7604L87.7292 26.4938C87.78 26.4176 87.8562 26.3542 87.9578 26.3034C88.0847 26.2272 88.2117 26.151 88.3387 26.0748C88.6434 25.7701 88.8719 25.6178 89.0243 25.6178H89.1766C89.5068 25.4908 89.8115 25.4273 90.0908 25.4273C90.4971 25.4273 90.8145 25.5797 91.043 25.8844C91.0938 25.9606 91.1446 26.1002 91.1954 26.3034C91.2462 26.3288 91.2589 26.3669 91.2335 26.4176C91.2335 26.443 91.2462 26.4811 91.2716 26.5319C91.2969 26.5827 91.3477 26.6462 91.4239 26.7224C91.5001 26.7731 91.5382 26.8366 91.5382 26.9128V26.989C91.5382 27.0906 91.4747 27.1794 91.3477 27.2556C91.4747 27.3572 91.5255 27.4207 91.5001 27.4461C91.5001 27.4461 91.4874 27.4841 91.462 27.5603L91.3858 28.0936C91.3604 28.2713 91.3223 28.411 91.2716 28.5126C91.2208 28.5887 91.17 28.7284 91.1192 28.9315C91.2208 29.0839 91.2208 29.1855 91.1192 29.2362H91.043L91.0049 29.3886C91.0049 29.4394 91.0303 29.4902 91.0811 29.541L90.9668 29.7695C90.9922 29.7441 91.0049 29.7441 91.0049 29.7695C91.0303 29.7695 91.043 29.7695 91.043 29.7695C91.0176 29.8203 90.9795 29.9219 90.9287 30.0742C90.878 30.2012 90.8399 30.3027 90.8145 30.3789C90.7891 30.5059 90.7383 30.5694 90.6621 30.5694C90.5859 30.5694 90.5606 30.6329 90.5859 30.7598C90.6113 30.7852 90.624 30.8741 90.624 31.0264C90.6494 31.1534 90.6367 31.2169 90.5859 31.2169L90.5098 31.674V31.7882C90.5098 31.9152 90.4844 32.0422 90.4336 32.1691C90.4082 32.2961 90.3828 32.423 90.3574 32.55C90.332 32.677 90.3066 32.8166 90.2812 32.969C90.2812 33.096 90.2812 33.2229 90.2812 33.3499C90.2812 33.4515 90.2812 33.5657 90.2812 33.6927C90.3066 33.7943 90.332 33.8958 90.3574 33.9974C90.3574 34.0228 90.3955 34.099 90.4717 34.2259C90.5479 34.3529 90.5859 34.4291 90.5859 34.4545L90.7002 34.5687C90.751 34.5941 90.8272 34.5941 90.9287 34.5687C91.0557 34.5434 91.1446 34.5561 91.1954 34.6068C91.4239 34.6322 91.7159 34.518 92.0714 34.264C92.4523 33.9847 92.7951 33.68 93.0998 33.3499C93.176 33.2737 93.2522 33.2356 93.3284 33.2356C93.3792 33.2356 93.4173 33.2737 93.4426 33.3499C93.468 33.4261 93.4426 33.5276 93.3665 33.6546C92.9602 34.2386 92.5793 34.6449 92.2238 34.8735C91.8683 35.0766 91.5382 35.1782 91.2335 35.1782Z" fill="#1ACDAD"/>
<path d="M96.2249 35.4448C95.5901 35.4448 95.0315 35.2671 94.549 34.9116C94.0666 34.5561 93.8253 33.9466 93.8253 33.0833C93.8253 32.7532 93.8634 32.4231 93.9396 32.0929C94.0158 31.7374 94.1046 31.3946 94.2062 31.0645C94.257 30.7344 94.3332 30.4424 94.4348 30.1885C94.4601 30.0869 94.4728 30.0361 94.4728 30.0361C94.4982 30.0107 94.5617 29.9726 94.6633 29.9219L94.968 29.4648V29.3124C94.9426 29.3124 94.9299 29.3124 94.9299 29.3124C94.9299 29.287 94.9299 29.2743 94.9299 29.2743C94.9299 29.1982 94.9934 29.1093 95.1204 29.0077C95.2473 28.9061 95.3108 28.8554 95.3108 28.8554C95.3362 28.7284 95.3743 28.6649 95.4251 28.6649C95.4759 28.6649 95.5393 28.6268 95.6155 28.5506H96.0345V28.4745C96.0345 28.3475 95.971 28.2967 95.8441 28.3221C95.7425 28.3221 95.6917 28.3094 95.6917 28.284C95.6917 28.2586 95.7298 28.2078 95.806 28.1317C95.9075 28.0301 95.971 27.9666 95.9964 27.9412C96.0726 27.8396 96.1361 27.7508 96.1869 27.6746C96.2376 27.573 96.3138 27.4968 96.4154 27.4461C96.8725 26.8874 97.1518 26.5319 97.2534 26.3796C97.3803 26.2272 97.5073 26.1129 97.6343 26.0367C97.685 26.0367 97.7231 26.0621 97.7485 26.1129C97.7993 26.1383 97.7993 26.1764 97.7485 26.2272C97.7993 26.3034 97.8374 26.3161 97.8628 26.2653C97.9136 26.2145 97.939 26.1891 97.939 26.1891L98.0913 26.1129C98.0405 26.0621 98.0151 25.9987 98.0151 25.9225C98.0151 25.7955 98.0405 25.6939 98.0913 25.6178C98.1421 25.5162 98.231 25.4146 98.3579 25.3131C98.5103 25.2115 98.5865 25.148 98.5865 25.1226C98.7388 25.0718 98.8531 25.021 98.9293 24.9702C99.0309 24.9195 99.1324 24.8941 99.234 24.8941C99.4118 24.8941 99.5895 24.9576 99.7673 25.0845C100.25 25.3384 100.656 25.5924 100.986 25.8463C101.316 26.1002 101.481 26.4557 101.481 26.9128C101.481 27.3953 101.278 27.8142 100.872 28.1698C100.491 28.4999 100.021 28.7792 99.4625 29.0077C98.9039 29.2362 98.3453 29.4267 97.7866 29.5791C97.2534 29.706 96.8344 29.8076 96.5297 29.8838C96.3519 29.9092 96.263 29.9853 96.263 30.1123C96.2884 30.2139 96.2757 30.3281 96.2249 30.4551L95.9583 30.8741L95.7298 31.4073L95.5393 31.7501C95.3616 31.9025 95.2981 32.0168 95.3489 32.0929C95.3997 32.1691 95.4886 32.1564 95.6155 32.0549C95.6409 32.0802 95.6536 32.1183 95.6536 32.1691C95.6536 32.2707 95.6282 32.3977 95.5774 32.55C95.5266 32.677 95.4886 32.7786 95.4632 32.8547C95.4378 32.9563 95.4378 33.0071 95.4632 33.0071C95.5139 32.9817 95.5393 33.0325 95.5393 33.1594L95.5774 33.6927C95.7298 34.1752 96.0726 34.4545 96.6058 34.5307C96.6566 34.5307 96.7074 34.5434 96.7582 34.5687C96.8344 34.5687 96.8979 34.5687 96.9486 34.5687C97.4057 34.5687 97.6469 34.5307 97.6723 34.4545C97.7231 34.3783 97.7866 34.3275 97.8628 34.3021C98.0913 34.2513 98.2818 34.2006 98.4341 34.1498C98.6119 34.099 98.7896 34.0228 98.9674 33.9212C99.2721 33.7943 99.5641 33.6292 99.8434 33.4261C100.123 33.2229 100.415 33.0198 100.719 32.8166L101.1 32.55C101.126 32.4992 101.126 32.4611 101.1 32.4357C101.075 32.4104 101.075 32.385 101.1 32.3596C101.151 32.3342 101.189 32.3342 101.215 32.3596C101.265 32.3596 101.304 32.3469 101.329 32.3215C101.38 32.2961 101.43 32.258 101.481 32.2072C101.532 32.131 101.583 32.0676 101.634 32.0168C101.684 31.966 101.71 31.9152 101.71 31.8644C101.735 31.8136 101.773 31.7628 101.824 31.7121C102.027 31.5089 102.23 31.2931 102.434 31.0645C102.662 30.836 102.852 30.6329 103.005 30.4551C103.183 30.2012 103.322 30.0742 103.424 30.0742C103.475 30.0742 103.5 30.0996 103.5 30.1504C103.5 30.2774 103.411 30.4678 103.233 30.7217C102.802 31.3566 102.307 31.9787 101.748 32.5881C101.189 33.1721 100.58 33.7054 99.9196 34.1879C99.4371 34.518 98.8658 34.81 98.2056 35.0639C97.5454 35.3178 96.8852 35.4448 96.2249 35.4448ZM96.7963 29.3124C97.1772 29.287 97.6723 29.1855 98.2818 29.0077C98.8912 28.8046 99.3991 28.5379 99.8053 28.2078C100.237 27.8523 100.453 27.4587 100.453 27.0271C100.453 26.6208 100.237 26.2272 99.8053 25.8463C99.4498 26.1002 99.0563 26.4684 98.6246 26.9509C98.2183 27.408 97.8501 27.865 97.52 28.3221C97.1899 28.7538 96.9486 29.0839 96.7963 29.3124Z" fill="#1ACDAD"/>
</svg>
